<?xml version="1.0" standalone="no"?><!DOCTYPE svg PUBLIC "-//W3C//DTD SVG 1.1//EN" "http://www.w3.org/Graphics/SVG/1.1/DTD/svg11.dtd"><svg t="1682940367108" class="icon" viewBox="0 0 1024 1024" version="1.1" xmlns="http://www.w3.org/2000/svg" p-id="6183" xmlns:xlink="http://www.w3.org/1999/xlink" width="200" height="200"><path d="M484 996.8h-0.9c-6.1-0.3-11.8-3.3-15.4-8.3L203.6 619.8c-45.3-63.9-69.2-138.7-69.2-216.6 0-50.6 9.9-99.7 29.5-145.9 18.9-44.6 45.9-84.7 80.3-119.2 34.4-34.4 74.5-61.5 119.2-80.3 46.2-19.6 95.3-29.5 145.9-29.5 50.6 0 99.7 9.9 145.9 29.5 44.6 18.9 84.7 45.9 119.2 80.3 34.4 34.4 61.5 74.5 80.3 119.2 19.6 46.2 29.5 95.3 29.5 145.9 0 77.9-23.9 152.7-69.2 216.5-0.3 0.5-0.7 1-1.1 1.4L499.2 989.8c-3.8 4.5-9.4 7-15.2 7z m25.3-928.5c-184.7 0-334.9 150.2-334.9 334.9 0 69.5 21.4 136.4 61.8 193.4l249.2 347.8L783 595.8c40.1-56.8 61.3-123.4 61.3-192.7-0.1-184.6-150.3-334.8-335-334.8z" fill="#1C1C1C" p-id="6184"></path><path d="M509.3 532.5c-78.7 0-142.7-64-142.7-142.7 0-78.7 64-142.7 142.7-142.7 78.7 0 142.7 64 142.7 142.7 0 78.8-64 142.7-142.7 142.7z m0-245.3c-56.6 0-102.7 46-102.7 102.7s46 102.7 102.7 102.7S612 446.5 612 389.9s-46.1-102.7-102.7-102.7z" fill="#1C1C1C" p-id="6185"></path></svg>